solid exported
	facet normal -0.007058697111930652 -0.0030634583437458896 -0.9999703945707885
		outer loop
			vertex -0.25463167654603214 0.9881498749256705 -1.7697612280273383
			vertex -0.7305071547592585 2.931484610636365 -1.7723555689810175
			vertex 0.6469368240171898 0.9419195173418933 -1.7759836864423493
		endloop
	endfacet
	facet normal 0.027914926843268736 -0.00683519886202283 -0.9995869331458128
		outer loop
			vertex 0.6469368240171898 0.9419195173418933 -1.7759836864423493
			vertex 1.280591779133579 2.714606219078491 -1.7704096183900782
			vertex 1.328558868778169 0.9850085569131618 -1.7572430379416089
		endloop
	endfacet
	facet normal 0.0012581950718650765 0.002694656566543888 -0.9999955778757972
		outer loop
			vertex -0.7305071547592585 2.931484610636365 -1.7723555689810175
			vertex 1.280591779133579 2.714606219078491 -1.7704096183900782
			vertex 0.6469368240171898 0.9419195173418933 -1.7759836864423493
		endloop
	endfacet
	facet normal -0.0024100301545688955 -0.0019251458821658868 -0.9999952427726776
		outer loop
			vertex -1.3470928711077597 1.5078993129743645 -1.7681289493310448
			vertex -0.7305071547592585 2.931484610636365 -1.7723555689810175
			vertex -0.25463167654603214 0.9881498749256705 -1.7697612280273383
		endloop
	endfacet
	facet normal -0.06173396786016197 -0.1266494262099302 -0.990024666386114
		outer loop
			vertex -1.4944413349214818 0.8787088622506133 -1.6784513706760245
			vertex -1.3470928711077597 1.5078993129743645 -1.7681289493310448
			vertex -0.25463167654603214 0.9881498749256705 -1.7697612280273383
		endloop
	endfacet
	facet normal -0.06207047069263504 0.02392164893938519 -0.9977850526942242
		outer loop
			vertex -1.3419297568896271 2.9717488102995633 -1.7333547093765977
			vertex -0.7305071547592585 2.931484610636365 -1.7723555689810175
			vertex -1.3470928711077597 1.5078993129743645 -1.7681289493310448
		endloop
	endfacet
	facet normal 0.011857078278125061 0.10102389509225616 -0.9948133404388461
		outer loop
			vertex 1.280591779133579 2.714606219078491 -1.7704096183900782
			vertex -0.7305071547592585 2.931484610636365 -1.7723555689810175
			vertex 1.3485078244456357 2.9869426434726982 -1.7419442057520507
		endloop
	endfacet
	facet normal 0.06144893613365754 -0.6383338785790341 -0.7673029960232717
		outer loop
			vertex 0.6469368240171898 0.9419195173418933 -1.7759836864423493
			vertex 1.328558868778169 0.9850085569131618 -1.7572430379416089
			vertex 0.8564864089491403 0.6890454050668737 -1.5488312931304704
		endloop
	endfacet
	facet normal 0.4193787430130325 0.004720038750041296 -0.9077990918386111
		outer loop
			vertex 1.328558868778169 0.9850085569131618 -1.7572430379416089
			vertex 1.280591779133579 2.714606219078491 -1.7704096183900782
			vertex 1.6240038851662786 2.4229901980027333 -1.6132787072377672
		endloop
	endfacet
	facet normal -0.02384795146078214 0.4847545206682315 -0.8743250710707301
		outer loop
			vertex -0.7305071547592585 2.931484610636365 -1.7723555689810175
			vertex -1.3419297568896271 2.9717488102995633 -1.7333547093765977
			vertex -0.410867932938695 3.337150142419824 -1.556159710005033
		endloop
	endfacet
	facet normal 0.0003709863729001121 0.4700910622800219 -0.8826178422927738
		outer loop
			vertex -0.7305071547592585 2.931484610636365 -1.7723555689810175
			vertex -0.410867932938695 3.337150142419824 -1.556159710005033
			vertex 1.3485078244456357 2.9869426434726982 -1.7419442057520507
		endloop
	endfacet
	facet normal 0.5771385349720688 -0.08367394533326819 -0.812348313423903
		outer loop
			vertex 1.328558868778169 0.9850085569131618 -1.7572430379416089
			vertex 1.6898720209315814 1.2994479889126027 -1.5329336469511827
			vertex 1.595345155853618 0.7332827300954059 -1.5417744550036576
		endloop
	endfacet
	facet normal 0.544711581682766 -0.02800298970999142 -0.8381557882326899
		outer loop
			vertex 1.328558868778169 0.9850085569131618 -1.7572430379416089
			vertex 1.6240038851662786 2.4229901980027333 -1.6132787072377672
			vertex 1.6898720209315814 1.2994479889126027 -1.5329336469511827
		endloop
	endfacet
	facet normal 0.41099191568533516 -0.007210116002721601 -0.9116104757343049
		outer loop
			vertex 1.280591779133579 2.714606219078491 -1.7704096183900782
			vertex 1.3485078244456357 2.9869426434726982 -1.7419442057520507
			vertex 1.6240038851662786 2.4229901980027333 -1.6132787072377672
		endloop
	endfacet
	facet normal -0.0005523609503896702 0.46647028921535505 -0.884536694646821
		outer loop
			vertex 1.3485078244456357 2.9869426434726982 -1.7419442057520507
			vertex -0.410867932938695 3.337150142419824 -1.556159710005033
			vertex 1.7439543873671421 3.29508381041758 -1.5796894673187092
		endloop
	endfacet
	facet normal -0.0005557079448394563 0.4374807155177132 -0.8992276212054375
		outer loop
			vertex -1.3419297568896271 2.9717488102995633 -1.7333547093765977
			vertex -1.4830217759697333 3.330621651236826 -1.5586732944768897
			vertex -0.410867932938695 3.337150142419824 -1.556159710005033
		endloop
	endfacet
	facet normal -0.007352779684548786 -0.5901962335308245 -0.8072263267243822
		outer loop
			vertex -1.4944413349214818 0.8787088622506133 -1.6784513706760245
			vertex -0.25463167654603214 0.9881498749256705 -1.7697612280273383
			vertex -1.0867644522688502 0.6838351309341633 -1.539684608210552
		endloop
	endfacet
	facet normal 0.5464904472141806 0.07670141930141884 -0.8339454918523109
		outer loop
			vertex 1.6240038851662786 2.4229901980027333 -1.6132787072377672
			vertex 1.3485078244456357 2.9869426434726982 -1.7419442057520507
			vertex 1.6677573728563249 3.2528448965130634 -1.5082815616208283
		endloop
	endfacet
	facet normal -0.6301475654167144 0.020661485241734855 -0.7762004566006088
		outer loop
			vertex -1.6313433709794691 1.4715323151115427 -1.5383321709908437
			vertex -1.3419297568896271 2.9717488102995633 -1.7333547093765977
			vertex -1.3470928711077597 1.5078993129743645 -1.7681289493310448
		endloop
	endfacet
	facet normal -0.6805005640655788 0.0361399540812439 -0.7318557822586598
		outer loop
			vertex -1.3419297568896271 2.9717488102995633 -1.7333547093765977
			vertex -1.6313433709794691 1.4715323151115427 -1.5383321709908437
			vertex -1.6816878659706809 2.589019132707189 -1.4363375139519294
		endloop
	endfacet
	facet normal -0.03912121486543073 -0.6326207373822665 -0.773473033260611
		outer loop
			vertex -1.4210299513319036 0.6857340775110691 -1.524331054930029
			vertex -1.4944413349214818 0.8787088622506133 -1.6784513706760245
			vertex -1.0867644522688502 0.6838351309341633 -1.539684608210552
		endloop
	endfacet
	facet normal 0.9047039502134046 0.006199132224387605 -0.42599569625516903
		outer loop
			vertex 1.7398609067817954 2.754054279393543 -1.3624108790642375
			vertex 1.6240038851662786 2.4229901980027333 -1.6132787072377672
			vertex 1.6677573728563249 3.2528448965130634 -1.5082815616208283
		endloop
	endfacet
	facet normal -0.045197892173916544 -0.8011042043929367 -0.5968158880651511
		outer loop
			vertex -0.25463167654603214 0.9881498749256705 -1.7697612280273383
			vertex 0.6469368240171898 0.9419195173418933 -1.7759836864423493
			vertex 0.0528163322205049 0.6840522224417649 -1.384855412690722
		endloop
	endfacet
	facet normal 0.04469989568732735 -0.6218622053620206 -0.7818499324472865
		outer loop
			vertex 0.8564864089491403 0.6890454050668737 -1.5488312931304704
			vertex 1.328558868778169 0.9850085569131618 -1.7572430379416089
			vertex 1.595345155853618 0.7332827300954059 -1.5417744550036576
		endloop
	endfacet
	facet normal -0.13413373433333142 -0.7214254878161213 -0.6793772198440766
		outer loop
			vertex 0.8564864089491403 0.6890454050668737 -1.5488312931304704
			vertex 0.0528163322205049 0.6840522224417649 -1.384855412690722
			vertex 0.6469368240171898 0.9419195173418933 -1.7759836864423493
		endloop
	endfacet
	facet normal 0.15998338409385288 -0.835231782258358 -0.5261113824271489
		outer loop
			vertex -0.25463167654603214 0.9881498749256705 -1.7697612280273383
			vertex -0.852330256345082 0.6767626248026728 -1.4571683210468636
			vertex -1.0867644522688502 0.6838351309341633 -1.539684608210552
		endloop
	endfacet
	facet normal 0.057805864205112766 -0.7603718529083061 -0.6469104477192262
		outer loop
			vertex -0.25463167654603214 0.9881498749256705 -1.7697612280273383
			vertex 0.0528163322205049 0.6840522224417649 -1.384855412690722
			vertex -0.852330256345082 0.6767626248026728 -1.4571683210468636
		endloop
	endfacet
	facet normal 0.574038134466965 -0.8076574566450031 0.13479485488478943
		outer loop
			vertex 1.3485078244456357 2.9869426434726982 -1.7419442057520507
			vertex 1.7439543873671421 3.29508381041758 -1.5796894673187092
			vertex 1.6677573728563249 3.2528448965130634 -1.5082815616208283
		endloop
	endfacet
	facet normal -0.47961200400201426 0.22435598940609866 -0.8483140430493783
		outer loop
			vertex -1.6897858079307169 3.2579896144669966 -1.460984142763242
			vertex -1.4830217759697333 3.330621651236826 -1.5586732944768897
			vertex -1.3419297568896271 2.9717488102995633 -1.7333547093765977
		endloop
	endfacet
	facet normal -0.6343568340691077 -0.03612865608376272 -0.7721956534968323
		outer loop
			vertex -1.3419297568896271 2.9717488102995633 -1.7333547093765977
			vertex -1.6816878659706809 2.589019132707189 -1.4363375139519294
			vertex -1.6897858079307169 3.2579896144669966 -1.460984142763242
		endloop
	endfacet
	facet normal 0.019377832607682128 0.9997313437653028 -0.012717700132129754
		outer loop
			vertex -0.410867932938695 3.337150142419824 -1.556159710005033
			vertex 1.4847165707841945 3.3367705245950416 1.302281910027364
			vertex 1.7439543873671421 3.29508381041758 -1.5796894673187092
		endloop
	endfacet
	facet normal -0.6311327116230167 0.03737595105729532 -0.7747738628799637
		outer loop
			vertex -1.4944413349214818 0.8787088622506133 -1.6784513706760245
			vertex -1.6313433709794691 1.4715323151115427 -1.5383321709908437
			vertex -1.3470928711077597 1.5078993129743645 -1.7681289493310448
		endloop
	endfacet
	facet normal 0.8968353600978541 0.020979242166588464 -0.44186673135264215
		outer loop
			vertex 1.6240038851662786 2.4229901980027333 -1.6132787072377672
			vertex 1.7398609067817954 2.754054279393543 -1.3624108790642375
			vertex 1.6898720209315814 1.2994479889126027 -1.5329336469511827
		endloop
	endfacet
	facet normal 0.7341778517208419 -0.32939340603553335 -0.5937026748321754
		outer loop
			vertex -1.1390001767600368 0.01492217647511307 -1.4444697540316582
			vertex -0.852330256345082 0.6767626248026728 -1.4571683210468636
			vertex -0.8718005973422885 0.007276813794479198 -1.1098067085812557
		endloop
	endfacet
	facet normal 0.32359441215525897 -0.15806118226724244 -0.9329004872343964
		outer loop
			vertex -1.1390001767600368 0.01492217647511307 -1.4444697540316582
			vertex -1.0867644522688502 0.6838351309341633 -1.539684608210552
			vertex -0.852330256345082 0.6767626248026728 -1.4571683210468636
		endloop
	endfacet
	facet normal 0.06051040007478208 -0.988133690762635 -0.1411747167966103
		outer loop
			vertex 1.595345155853618 0.7332827300954059 -1.5417744550036576
			vertex 1.4339823244328362 0.6822161037841147 -1.2535038257525812
			vertex 0.8564864089491403 0.6890454050668737 -1.5488312931304704
		endloop
	endfacet
	facet normal 0.9059148413591355 -0.14503893034410428 -0.39784671531871524
		outer loop
			vertex 1.595345155853618 0.7332827300954059 -1.5417744550036576
			vertex 1.6898720209315814 1.2994479889126027 -1.5329336469511827
			vertex 1.744299551171688 0.7271361172950794 -1.2003577979846365
		endloop
	endfacet
	facet normal -0.554944359794967 -0.30640209693550113 -0.7734044947666663
		outer loop
			vertex 1.7398609067817954 2.754054279393543 -1.3624108790642375
			vertex 1.6677573728563249 3.2528448965130634 -1.5082815616208283
			vertex 1.7439543873671421 3.29508381041758 -1.5796894673187092
		endloop
	endfacet
	facet normal -0.9101924605358354 -0.11622991519102248 -0.39754281731457475
		outer loop
			vertex -1.6951345996968235 0.7346663474239259 -1.1768411363166607
			vertex -1.6313433709794691 1.4715323151115427 -1.5383321709908437
			vertex -1.4944413349214818 0.8787088622506133 -1.6784513706760245
		endloop
	endfacet
	facet normal 0.15718718227611256 -0.9837917938119317 -0.08628960630573101
		outer loop
			vertex 1.595345155853618 0.7332827300954059 -1.5417744550036576
			vertex 1.744299551171688 0.7271361172950794 -1.2003577979846365
			vertex 1.4339823244328362 0.6822161037841147 -1.2535038257525812
		endloop
	endfacet
	facet normal -0.6649327407651391 -0.6039336375515304 -0.4394640050019311
		outer loop
			vertex -1.4210299513319036 0.6857340775110691 -1.524331054930029
			vertex -1.6951345996968235 0.7346663474239259 -1.1768411363166607
			vertex -1.4944413349214818 0.8787088622506133 -1.6784513706760245
		endloop
	endfacet
	facet normal -0.005928718819087112 -0.9999678546756692 -0.005398139355767099
		outer loop
			vertex -1.4210299513319036 0.6857340775110691 -1.524331054930029
			vertex -1.0867644522688502 0.6838351309341633 -1.539684608210552
			vertex -0.9318150574295511 0.68046892638685 -1.0862978419404827
		endloop
	endfacet
	facet normal 0.007132322082310107 -0.9999081917656388 0.011521198795469163
		outer loop
			vertex 0.0528163322205049 0.6840522224417649 -1.384855412690722
			vertex -0.9318150574295511 0.68046892638685 -1.0862978419404827
			vertex -0.852330256345082 0.6767626248026728 -1.4571683210468636
		endloop
	endfacet
	facet normal 0.5281966351488541 -0.29570979740448816 -0.7959673550695564
		outer loop
			vertex 1.469590788198541 0.01256293354187421 -0.9810915557436896
			vertex 1.1164564903875311 0.24732670321578243 -1.3026453141955647
			vertex 1.4339823244328362 0.6822161037841147 -1.2535038257525812
		endloop
	endfacet
	facet normal -0.9750793983674001 -0.02379650291566251 -0.2205762755340071
		outer loop
			vertex -1.6951345996968235 0.7346663474239259 -1.1768411363166607
			vertex -1.6816878659706809 2.589019132707189 -1.4363375139519294
			vertex -1.6313433709794691 1.4715323151115427 -1.5383321709908437
		endloop
	endfacet
	facet normal -0.6262280313108259 0.5226031457732865 -0.5785537181873714
		outer loop
			vertex 1.1164564903875311 0.24732670321578243 -1.3026453141955647
			vertex 1.0973627271544981 0.6817295381861078 -0.8895854196074057
			vertex 1.4339823244328362 0.6822161037841147 -1.2535038257525812
		endloop
	endfacet
	facet normal -0.9392504175392296 0.11916416342284972 0.32188282853876415
		outer loop
			vertex -1.1390001767600368 0.01492217647511307 -1.4444697540316582
			vertex -0.9318150574295511 0.68046892638685 -1.0862978419404827
			vertex -1.0867644522688502 0.6838351309341633 -1.539684608210552
		endloop
	endfacet
	facet normal 0.9748527215136228 0.07963887418639806 0.2081341420233748
		outer loop
			vertex -0.8718005973422885 0.007276813794479198 -1.1098067085812557
			vertex -0.852330256345082 0.6767626248026728 -1.4571683210468636
			vertex -0.9318150574295511 0.68046892638685 -1.0862978419404827
		endloop
	endfacet
	facet normal -0.007563493369642528 -0.9999366748124114 -0.008333062650988265
		outer loop
			vertex 1.4339823244328362 0.6822161037841147 -1.2535038257525812
			vertex 1.0973627271544981 0.6817295381861078 -0.8895854196074057
			vertex 0.8564864089491403 0.6890454050668737 -1.5488312931304704
		endloop
	endfacet
	facet normal -0.9991803592008807 -0.005828149341131289 -0.04005798874702701
		outer loop
			vertex 1.1006688320420768 0.014346747566992724 -0.874951347337713
			vertex 1.0973627271544981 0.6817295381861078 -0.8895854196074057
			vertex 1.1164564903875311 0.24732670321578243 -1.3026453141955647
		endloop
	endfacet
	facet normal -0.7792359674435082 -0.09112197258130263 0.6200710387973886
		outer loop
			vertex -1.1390001767600368 0.01492217647511307 -1.4444697540316582
			vertex -0.8718005973422885 0.007276813794479198 -1.1098067085812557
			vertex -0.9318150574295511 0.68046892638685 -1.0862978419404827
		endloop
	endfacet
	facet normal -0.141591664127026 -0.8671086969959347 -0.47757125985946025
		outer loop
			vertex 1.469590788198541 0.01256293354187421 -0.9810915557436896
			vertex 1.1006688320420768 0.014346747566992724 -0.874951347337713
			vertex 1.1164564903875311 0.24732670321578243 -1.3026453141955647
		endloop
	endfacet
	facet normal 0.9831695796704649 -0.012419794808027925 -0.1822726702156078
		outer loop
			vertex 1.744299551171688 0.7271361172950794 -1.2003577979846365
			vertex 1.6898720209315814 1.2994479889126027 -1.5329336469511827
			vertex 1.7398609067817954 2.754054279393543 -1.3624108790642375
		endloop
	endfacet
	facet normal -0.006085177743723183 0.9999801451464652 -0.0016370475503092981
		outer loop
			vertex -1.4830217759697333 3.330621651236826 -1.5586732944768897
			vertex -1.438818515210078 3.335593475487399 1.3140232477020493
			vertex -0.410867932938695 3.337150142419824 -1.556159710005033
		endloop
	endfacet
	facet normal 0.0002098575919971088 0.9999999779596589 -0.000006361852148810405
		outer loop
			vertex -0.9898180886973695 3.337291076511653 1.4990831177202826
			vertex 1.4847165707841945 3.3367705245950416 1.302281910027364
			vertex -0.410867932938695 3.337150142419824 -1.556159710005033
		endloop
	endfacet
	facet normal 0.999985024232813 0.0017759432457678309 -0.0051766143074596345
		outer loop
			vertex 1.7398609067817954 2.754054279393543 -1.3624108790642375
			vertex 1.7458690019487257 1.9834396439930009 -0.46618082236851033
			vertex 1.744299551171688 0.7271361172950794 -1.2003577979846365
		endloop
	endfacet
	facet normal 0.0036744801979273385 -0.9999158814384014 -0.012438980767735336
		outer loop
			vertex 0.8564864089491403 0.6890454050668737 -1.5488312931304704
			vertex 1.0973627271544981 0.6817295381861078 -0.8895854196074057
			vertex 0.0528163322205049 0.6840522224417649 -1.384855412690722
		endloop
	endfacet
	facet normal 0.9982835697078212 0.057534274342787094 0.01094174242334048
		outer loop
			vertex 1.4339823244328362 0.6822161037841147 -1.2535038257525812
			vertex 1.4297398029273696 0.6861080049659936 -0.886896602924027
			vertex 1.469590788198541 0.01256293354187421 -0.9810915557436896
		endloop
	endfacet
	facet normal 0.27405651223877564 -0.11727658242247252 0.9545361341064167
		outer loop
			vertex 1.469590788198541 0.01256293354187421 -0.9810915557436896
			vertex 1.4297398029273696 0.6861080049659936 -0.886896602924027
			vertex 1.1006688320420768 0.014346747566992724 -0.874951347337713
		endloop
	endfacet
	facet normal -0.008375666975600554 0.021880043741028317 0.9997255182741934
		outer loop
			vertex 1.1006688320420768 0.014346747566992724 -0.874951347337713
			vertex 1.4297398029273696 0.6861080049659936 -0.886896602924027
			vertex 1.0973627271544981 0.6817295381861078 -0.8895854196074057
		endloop
	endfacet
	facet normal -0.9999217220537185 0.005691603900487154 -0.011142504663047285
		outer loop
			vertex -1.6951345996968235 0.7346663474239259 -1.1768411363166607
			vertex -1.6959192471350704 1.9851999365235344 -0.4676533809574158
			vertex -1.6816878659706809 2.589019132707189 -1.4363375139519294
		endloop
	endfacet
	facet normal 0.14121412401158812 -0.9899046007114033 0.012143009101412916
		outer loop
			vertex 1.4339823244328362 0.6822161037841147 -1.2535038257525812
			vertex 1.744299551171688 0.7271361172950794 -1.2003577979846365
			vertex 1.4297398029273696 0.6861080049659936 -0.886896602924027
		endloop
	endfacet
	facet normal 0.9996738511477131 -0.01566396664112073 -0.020170063970302583
		outer loop
			vertex 1.7398609067817954 2.754054279393543 -1.3624108790642375
			vertex 1.7439543873671421 3.29508381041758 -1.5796894673187092
			vertex 1.7458690019487257 1.9834396439930009 -0.46618082236851033
		endloop
	endfacet
	facet normal -0.9999239802229503 -0.012175821063460946 -0.0019450338104271593
		outer loop
			vertex -1.6816878659706809 2.589019132707189 -1.4363375139519294
			vertex -1.695189476688332 3.282335199327732 1.1645900038629038
			vertex -1.6897858079307169 3.2579896144669966 -1.460984142763242
		endloop
	endfacet
	facet normal -0.003489289124807652 0.9999936622544273 -0.0007073276340943982
		outer loop
			vertex -0.410867932938695 3.337150142419824 -1.556159710005033
			vertex -1.438818515210078 3.335593475487399 1.3140232477020493
			vertex -0.9898180886973695 3.337291076511653 1.4990831177202826
		endloop
	endfacet
	facet normal -0.011714550890086835 -0.9999308160166392 0.0010641793747437418
		outer loop
			vertex -1.4210299513319036 0.6857340775110691 -1.524331054930029
			vertex -0.9318150574295511 0.68046892638685 -1.0862978419404827
			vertex -0.8515979135393668 0.6816692046755571 0.9245502479769644
		endloop
	endfacet
	facet normal 0.003774532550266823 -0.9999927768238949 0.0004463228240277567
		outer loop
			vertex -0.9318150574295511 0.68046892638685 -1.0862978419404827
			vertex 0.0528163322205049 0.6840522224417649 -1.384855412690722
			vertex -0.8515979135393668 0.6816692046755571 0.9245502479769644
		endloop
	endfacet
	facet normal 0.013186732741530012 -0.9999113981745706 -0.001818207958128559
		outer loop
			vertex 1.0973627271544981 0.6817295381861078 -0.8895854196074057
			vertex 1.4297398029273696 0.6861080049659936 -0.886896602924027
			vertex 1.4760591017715323 0.6836152332167686 0.8199219630472683
		endloop
	endfacet
	facet normal -0.999910730853594 0.010674777930622716 -0.008036133396310347
		outer loop
			vertex -1.6959192471350704 1.9851999365235344 -0.4676533809574158
			vertex -1.695189476688332 3.282335199327732 1.1645900038629038
			vertex -1.6816878659706809 2.589019132707189 -1.4363375139519294
		endloop
	endfacet
	facet normal 0.1245987718198739 -0.9921954510768342 -0.0048304164848373445
		outer loop
			vertex 1.4297398029273696 0.6861080049659936 -0.886896602924027
			vertex 1.744299551171688 0.7271361172950794 -1.2003577979846365
			vertex 1.4760591017715323 0.6836152332167686 0.8199219630472683
		endloop
	endfacet
	facet normal -0.9999998035968513 -0.0006267413321440036 -0.0000012495937921593159
		outer loop
			vertex -1.6951372500060724 0.7343626531640998 1.09641477389635
			vertex -1.6959192471350704 1.9851999365235344 -0.4676533809574158
			vertex -1.6951345996968235 0.7346663474239259 -1.1768411363166607
		endloop
	endfacet
	facet normal -0.32997527610781885 0.9439832933829022 0.0034436857491229158
		outer loop
			vertex -1.4830217759697333 3.330621651236826 -1.5586732944768897
			vertex -1.6897858079307169 3.2579896144669966 -1.460984142763242
			vertex -1.438818515210078 3.335593475487399 1.3140232477020493
		endloop
	endfacet
	facet normal 0.1918986048123513 -0.9814051711278965 0.0043376899955380145
		outer loop
			vertex 1.744299551171688 0.7271361172950794 -1.2003577979846365
			vertex 1.7454373133422274 0.7378282443082504 1.1684084758885311
			vertex 1.4760591017715323 0.6836152332167686 0.8199219630472683
		endloop
	endfacet
	facet normal 0.9999844664210603 -0.005555148656482741 -0.00045523619358429007
		outer loop
			vertex 1.744299551171688 0.7271361172950794 -1.2003577979846365
			vertex 1.7481234797163572 1.3554316599207983 -0.46756455662243845
			vertex 1.7454373133422274 0.7378282443082504 1.1684084758885311
		endloop
	endfacet
	facet normal 0.9999589486601714 0.0036080533087196583 -0.008311615111762755
		outer loop
			vertex 1.744299551171688 0.7271361172950794 -1.2003577979846365
			vertex 1.7458690019487257 1.9834396439930009 -0.46618082236851033
			vertex 1.7481234797163572 1.3554316599207983 -0.46756455662243845
		endloop
	endfacet
	facet normal 0.999970647882755 -0.005732008241135024 -0.005084039188180534
		outer loop
			vertex -1.6951372500060724 0.7343626531640998 1.09641477389635
			vertex -1.6995941347596197 1.3385062588923722 -0.4613446705664045
			vertex -1.6959192471350704 1.9851999365235344 -0.4676533809574158
		endloop
	endfacet
	facet normal -0.06505379874438054 -0.010755601192474705 -0.9978237922157972
		outer loop
			vertex -2.3440723292467336 1.3693753071435595 -0.4196602169468319
			vertex -2.292469716864969 2.035636081547085 -0.430206148224812
			vertex -1.6995941347596197 1.3385062588923722 -0.4613446705664045
		endloop
	endfacet
	facet normal 0.06683303784580333 0.02277806742059673 -0.9975041376840922
		outer loop
			vertex 1.7481234797163572 1.3554316599207983 -0.46756455662243845
			vertex 2.476266168874151 1.9847317477021587 -0.40440870057239514
			vertex 2.432604350704011 1.3625852733103352 -0.4215408062346748
		endloop
	endfacet
	facet normal -0.0634363562240119 -0.00937477026334123 -0.9979418532116638
		outer loop
			vertex -2.292469716864969 2.035636081547085 -0.430206148224812
			vertex -1.6959192471350704 1.9851999365235344 -0.4676533809574158
			vertex -1.6995941347596197 1.3385062588923722 -0.4613446705664045
		endloop
	endfacet
	facet normal 0.08426783219220205 0.0024980385073652524 -0.996440009363957
		outer loop
			vertex 1.7481234797163572 1.3554316599207983 -0.46756455662243845
			vertex 1.7458690019487257 1.9834396439930009 -0.46618082236851033
			vertex 2.476266168874151 1.9847317477021587 -0.40440870057239514
		endloop
	endfacet
	facet normal -0.9999992017542847 0.0011682588154496019 -0.00048131292716849813
		outer loop
			vertex -1.6964999766616886 2.006984952385947 0.7917759126737446
			vertex -1.695189476688332 3.282335199327732 1.1645900038629038
			vertex -1.6959192471350704 1.9851999365235344 -0.4676533809574158
		endloop
	endfacet
	facet normal -0.003068978469247831 -0.9999937012854971 0.0017829078740537756
		outer loop
			vertex 1.0973627271544981 0.6817295381861078 -0.8895854196074057
			vertex 1.4760591017715323 0.6836152332167686 0.8199219630472683
			vertex 0.0528163322205049 0.6840522224417649 -1.384855412690722
		endloop
	endfacet
	facet normal -0.8082962178287119 0.05332224599548537 -0.5863565146954511
		outer loop
			vertex -2.3440723292467336 1.3693753071435595 -0.4196602169468319
			vertex -2.5 1.9959682209524783 -0.1477316478634501
			vertex -2.292469716864969 2.035636081547085 -0.430206148224812
		endloop
	endfacet
	facet normal 0.023384761663695408 0.9547546984059849 -0.2964736392896151
		outer loop
			vertex 1.7458690019487257 1.9834396439930009 -0.46618082236851033
			vertex 2.1559783228400313 2.124594452017227 0.020737762483509992
			vertex 2.476266168874151 1.9847317477021587 -0.40440870057239514
		endloop
	endfacet
	facet normal -0.06137550383743045 -0.9713491027540047 -0.22959522666573878
		outer loop
			vertex -2.3440723292467336 1.3693753071435595 -0.4196602169468319
			vertex -1.6995941347596197 1.3385062588923722 -0.4613446705664045
			vertex -2.2437911750875674 1.2238366927458135 0.16926315969743944
		endloop
	endfacet
	facet normal 0.9999839113753415 -0.002751474491970805 -0.004960481689636819
		outer loop
			vertex 1.7458690019487257 1.9834396439930009 -0.46618082236851033
			vertex 1.7439543873671421 3.29508381041758 -1.5796894673187092
			vertex 1.7522953782753654 1.99395673367033 0.8234793016615973
		endloop
	endfacet
	facet normal 0.014463893706732608 -0.9980950861469413 -0.059974951339457204
		outer loop
			vertex 2.432604350704011 1.3625852733103352 -0.4215408062346748
			vertex 2.466321740870285 1.2988879941583442 0.6466322333292353
			vertex 1.7481234797163572 1.3554316599207983 -0.46756455662243845
		endloop
	endfacet
	facet normal 0.08316142270718313 0.9963877012922804 -0.017196699881165695
		outer loop
			vertex -2.292469716864969 2.035636081547085 -0.430206148224812
			vertex -1.6964999766616886 2.006984952385947 0.7917759126737446
			vertex -1.6959192471350704 1.9851999365235344 -0.4676533809574158
		endloop
	endfacet
	facet normal -0.198078435139708 0.9801401734613744 -0.009495993876988573
		outer loop
			vertex -1.6897858079307169 3.2579896144669966 -1.460984142763242
			vertex -1.695189476688332 3.282335199327732 1.1645900038629038
			vertex -1.438818515210078 3.335593475487399 1.3140232477020493
		endloop
	endfacet
	facet normal -0.9745318234629257 -0.21531296314135095 -0.06267418097842495
		outer loop
			vertex -2.4104739566738047 1.3358382549316254 0.7280446277155809
			vertex -2.5 1.9959682209524783 -0.1477316478634501
			vertex -2.3440723292467336 1.3693753071435595 -0.4196602169468319
		endloop
	endfacet
	facet normal -0.04019918511854138 -0.9988843706318558 -0.02477982290507513
		outer loop
			vertex 1.7481234797163572 1.3554316599207983 -0.46756455662243845
			vertex 2.466321740870285 1.2988879941583442 0.6466322333292353
			vertex 1.7519815504801755 1.3239085893997171 0.7968839939998246
		endloop
	endfacet
	facet normal 0.9973499427237627 -0.06939133552371675 -0.02186170860529055
		outer loop
			vertex 2.432604350704011 1.3625852733103352 -0.4215408062346748
			vertex 2.476266168874151 1.9847317477021587 -0.40440870057239514
			vertex 2.5 2.0188832039582274 0.5699488091209551
		endloop
	endfacet
	facet normal -0.1759002899217972 -0.9844079797808425 -0.0001317164695829125
		outer loop
			vertex -1.6951345996968235 0.7346663474239259 -1.1768411363166607
			vertex -1.4210299513319036 0.6857340775110691 -1.524331054930029
			vertex -1.6951372500060724 0.7343626531640998 1.09641477389635
		endloop
	endfacet
	facet normal -0.6894234899095977 -0.7217872673549761 -0.06097862121356372
		outer loop
			vertex -2.2437911750875674 1.2238366927458135 0.16926315969743944
			vertex -2.4104739566738047 1.3358382549316254 0.7280446277155809
			vertex -2.3440723292467336 1.3693753071435595 -0.4196602169468319
		endloop
	endfacet
	facet normal -0.31891890553184854 0.947762119424611 -0.006139762058698561
		outer loop
			vertex 1.7522953782753654 1.99395673367033 0.8234793016615973
			vertex 2.1559783228400313 2.124594452017227 0.020737762483509992
			vertex 1.7458690019487257 1.9834396439930009 -0.46618082236851033
		endloop
	endfacet
	facet normal 0.9999057041079311 -0.013309401912644405 -0.0033827079611698768
		outer loop
			vertex 1.7481234797163572 1.3554316599207983 -0.46756455662243845
			vertex 1.7519815504801755 1.3239085893997171 0.7968839939998246
			vertex 1.7454373133422274 0.7378282443082504 1.1684084758885311
		endloop
	endfacet
	facet normal 0.3532251712915688 0.9346235062146351 -0.041362785171019815
		outer loop
			vertex 2.476266168874151 1.9847317477021587 -0.40440870057239514
			vertex 2.1559783228400313 2.124594452017227 0.020737762483509992
			vertex 2.5 2.0188832039582274 0.5699488091209551
		endloop
	endfacet
	facet normal 0.9981345322855066 -0.05036390456644067 -0.03450989098817153
		outer loop
			vertex 2.432604350704011 1.3625852733103352 -0.4215408062346748
			vertex 2.5 2.0188832039582274 0.5699488091209551
			vertex 2.466321740870285 1.2988879941583442 0.6466322333292353
		endloop
	endfacet
	facet normal -0.15694071820035713 -0.9876061767979806 0.001910633725277932
		outer loop
			vertex -1.6951372500060724 0.7343626531640998 1.09641477389635
			vertex -1.4210299513319036 0.6857340775110691 -1.524331054930029
			vertex -1.4332578546045958 0.693486310014655 1.4783882558997679
		endloop
	endfacet
	facet normal 0.000019719059074714276 -0.9999994753618302 -0.0010241519531747
		outer loop
			vertex 0.8657900077666534 0.6817633686041685 0.8656736280105136
			vertex -0.8515979135393668 0.6816692046755571 0.9245502479769644
			vertex 0.0528163322205049 0.6840522224417649 -1.384855412690722
		endloop
	endfacet
	facet normal 0.06409008547952612 0.9979131655894186 -0.00785970015539715
		outer loop
			vertex -1.6964999766616886 2.006984952385947 0.7917759126737446
			vertex -2.292469716864969 2.035636081547085 -0.430206148224812
			vertex -2.2765982619770826 2.0438567172352946 0.742953552644449
		endloop
	endfacet
	facet normal -0.19333215764449374 0.9811241175336691 -0.0042594382614964685
		outer loop
			vertex -2.5 1.9959682209524783 -0.1477316478634501
			vertex -2.2765982619770826 2.0438567172352946 0.742953552644449
			vertex -2.292469716864969 2.035636081547085 -0.430206148224812
		endloop
	endfacet
	facet normal 0.21814175997033863 -0.9758573250597956 0.010800633508451913
		outer loop
			vertex -1.6995941347596197 1.3385062588923722 -0.4613446705664045
			vertex -1.697232241517132 1.3529310151940983 0.7942554328767245
			vertex -2.2437911750875674 1.2238366927458135 0.16926315969743944
		endloop
	endfacet
	facet normal 0.2033823950722445 0.9790906622973622 0.004132357292144409
		outer loop
			vertex 1.7439543873671421 3.29508381041758 -1.5796894673187092
			vertex 1.4847165707841945 3.3367705245950416 1.302281910027364
			vertex 1.7440014693314478 3.283556680090431 1.149147665222539
		endloop
	endfacet
	facet normal -0.9999951658327603 -0.002454177997622321 0.0019092724966044234
		outer loop
			vertex -1.6995941347596197 1.3385062588923722 -0.4613446705664045
			vertex -1.6951372500060724 0.7343626531640998 1.09641477389635
			vertex -1.697232241517132 1.3529310151940983 0.7942554328767245
		endloop
	endfacet
	facet normal 0.0028802381189804004 -0.9999937355019931 -0.002057470570417037
		outer loop
			vertex 1.4760591017715323 0.6836152332167686 0.8199219630472683
			vertex 0.8657900077666534 0.6817633686041685 0.8656736280105136
			vertex 0.0528163322205049 0.6840522224417649 -1.384855412690722
		endloop
	endfacet
	facet normal -0.9569899751012884 0.1760974310539802 0.23056426941706326
		outer loop
			vertex -2.4104739566738047 1.3358382549316254 0.7280446277155809
			vertex -2.2765982619770826 2.0438567172352946 0.742953552644449
			vertex -2.5 1.9959682209524783 -0.1477316478634501
		endloop
	endfacet
	facet normal 0.025927300162382212 0.9845346194009147 0.17326095436475564
		outer loop
			vertex 1.7522953782753654 1.99395673367033 0.8234793016615973
			vertex 2.5 2.0188832039582274 0.5699488091209551
			vertex 2.1559783228400313 2.124594452017227 0.020737762483509992
		endloop
	endfacet
	facet normal 0.9999793353403073 0.006428747489629767 0.000009903126301716544
		outer loop
			vertex 1.7439543873671421 3.29508381041758 -1.5796894673187092
			vertex 1.7440014693314478 3.283556680090431 1.149147665222539
			vertex 1.7522953782753654 1.99395673367033 0.8234793016615973
		endloop
	endfacet
	facet normal -0.048798744886165424 -0.9988057961486704 0.0023799322166420077
		outer loop
			vertex -1.4210299513319036 0.6857340775110691 -1.524331054930029
			vertex -1.164910067679856 0.6791059658804176 0.9455428798366312
			vertex -1.4332578546045958 0.693486310014655 1.4783882558997679
		endloop
	endfacet
	facet normal 0.005110331431854612 -0.9801901788051064 0.19799267129535414
		outer loop
			vertex -2.2437911750875674 1.2238366927458135 0.16926315969743944
			vertex -1.697232241517132 1.3529310151940983 0.7942554328767245
			vertex -2.4104739566738047 1.3358382549316254 0.7280446277155809
		endloop
	endfacet
	facet normal 0.3173729804438952 0.08574021097935419 0.9444167552015238
		outer loop
			vertex 2.466321740870285 1.2988879941583442 0.6466322333292353
			vertex 2.5 2.0188832039582274 0.5699488091209551
			vertex 1.7522953782753654 1.99395673367033 0.8234793016615973
		endloop
	endfacet
	facet normal 0.2043709849386889 -0.03891888579769894 0.9781195330037408
		outer loop
			vertex 1.7519815504801755 1.3239085893997171 0.7968839939998246
			vertex 2.466321740870285 1.2988879941583442 0.6466322333292353
			vertex 1.7522953782753654 1.99395673367033 0.8234793016615973
		endloop
	endfacet
	facet normal -0.08418426902605926 -0.005064249187977842 0.9964373348227726
		outer loop
			vertex -2.4104739566738047 1.3358382549316254 0.7280446277155809
			vertex -1.6964999766616886 2.006984952385947 0.7917759126737446
			vertex -2.2765982619770826 2.0438567172352946 0.742953552644449
		endloop
	endfacet
	facet normal -0.09252484130295754 0.003878300874104925 0.995702823398725
		outer loop
			vertex -1.697232241517132 1.3529310151940983 0.7942554328767245
			vertex -1.6964999766616886 2.006984952385947 0.7917759126737446
			vertex -2.4104739566738047 1.3358382549316254 0.7280446277155809
		endloop
	endfacet
	facet normal 0.9998733123698909 -0.001098582311413938 0.0158793050026689
		outer loop
			vertex 1.7519815504801755 1.3239085893997171 0.7968839939998246
			vertex 1.7522953782753654 1.99395673367033 0.8234793016615973
			vertex 1.7454373133422274 0.7378282443082504 1.1684084758885311
		endloop
	endfacet
	facet normal -0.9999561142137791 0.0011547749099680038 0.009297103924712748
		outer loop
			vertex -1.697232241517132 1.3529310151940983 0.7942554328767245
			vertex -1.6951372500060724 0.7343626531640998 1.09641477389635
			vertex -1.6964999766616886 2.006984952385947 0.7917759126737446
		endloop
	endfacet
	facet normal 0.0079457872034302 -0.9999622804522642 -0.003507440437911789
		outer loop
			vertex -0.8515979135393668 0.6816692046755571 0.9245502479769644
			vertex -1.164910067679856 0.6791059658804176 0.9455428798366312
			vertex -1.4210299513319036 0.6857340775110691 -1.524331054930029
		endloop
	endfacet
	facet normal 0.9997453942414669 0.0007345066345975173 0.022552321232587765
		outer loop
			vertex 1.7522953782753654 1.99395673367033 0.8234793016615973
			vertex 1.7440014693314478 3.283556680090431 1.149147665222539
			vertex 1.7454373133422274 0.7378282443082504 1.1684084758885311
		endloop
	endfacet
	facet normal -0.6576431785075395 -0.2601320363737621 -0.7069913531398672
		outer loop
			vertex 0.7348987171848453 0 1.23827826681873
			vertex 0.8657900077666534 0.6817633686041685 0.8656736280105136
			vertex 1.0979408063718674 0.013501610717651102 0.8956087930276537
		endloop
	endfacet
	facet normal -0.9424097973371214 -0.001857460121912252 -0.3344552641608465
		outer loop
			vertex 0.7348987171848453 0 1.23827826681873
			vertex 0.7299918255108729 0.6829560077662168 1.2483117140332536
			vertex 0.8657900077666534 0.6817633686041685 0.8656736280105136
		endloop
	endfacet
	facet normal -0.02374398362217634 -0.9997039656519496 -0.0053107722146361015
		outer loop
			vertex -0.016111970452232206 0.6994734365584094 1.4748206278495308
			vertex 0.8657900077666534 0.6817633686041685 0.8656736280105136
			vertex 0.7299918255108729 0.6829560077662168 1.2483117140332536
		endloop
	endfacet
	facet normal -0.08571861108876534 -0.029460261727762654 -0.995883734525243
		outer loop
			vertex -1.184798923687588 0.31844135999028933 0.9639748452601355
			vertex -0.8515979135393668 0.6816692046755571 0.9245502479769644
			vertex -0.8270716399480676 0.014286258155898013 0.9421817420569998
		endloop
	endfacet
	facet normal -0.06639262062700761 -0.04727430849503264 -0.996673045528269
		outer loop
			vertex -1.184798923687588 0.31844135999028933 0.9639748452601355
			vertex -1.164910067679856 0.6791059658804176 0.9455428798366312
			vertex -0.8515979135393668 0.6816692046755571 0.9245502479769644
		endloop
	endfacet
	facet normal 0.8989974034404713 0.2979277107163687 -0.32100272240994193
		outer loop
			vertex 1.0979408063718674 0.013501610717651102 0.8956087930276537
			vertex 0.8657900077666534 0.6817633686041685 0.8656736280105136
			vertex 1.0808139623529496 0.6885219689901969 1.474140589676347
		endloop
	endfacet
	facet normal -0.5998681779534982 -0.6747139553114477 -0.4300223803323868
		outer loop
			vertex -0.8270716399480676 0.014286258155898013 0.9421817420569998
			vertex -1.0778348588565339 0.007648012989882824 1.302404369904722
			vertex -1.184798923687588 0.31844135999028933 0.9639748452601355
		endloop
	endfacet
	facet normal 0.03733449483783146 -0.9993028084491133 0.00018033557307969454
		outer loop
			vertex 1.0979408063718674 0.013501610717651102 0.8956087930276537
			vertex 1.0921342126581328 0.01333947415183001 1.1992799795732871
			vertex 0.7348987171848453 0 1.23827826681873
		endloop
	endfacet
	facet normal 0.9997768491201378 0.008978138474708958 0.019121845960533818
		outer loop
			vertex 1.0979408063718674 0.013501610717651102 0.8956087930276537
			vertex 1.0808139623529496 0.6885219689901969 1.474140589676347
			vertex 1.0921342126581328 0.01333947415183001 1.1992799795732871
		endloop
	endfacet
	facet normal 0.0037672189329401055 -0.999945120422854 0.00977569455514769
		outer loop
			vertex 1.4760591017715323 0.6836152332167686 0.8199219630472683
			vertex 1.0808139623529496 0.6885219689901969 1.474140589676347
			vertex 0.8657900077666534 0.6817633686041685 0.8656736280105136
		endloop
	endfacet
	facet normal -0.994942988922674 -0.027238632951389227 0.09667732758281934
		outer loop
			vertex -1.6436235009344211 2.557440931856215 1.4910375583430504
			vertex -1.695189476688332 3.282335199327732 1.1645900038629038
			vertex -1.6964999766616886 2.006984952385947 0.7917759126737446
		endloop
	endfacet
	facet normal -0.9988653852108667 0.010072433248622602 0.04654555097965191
		outer loop
			vertex -1.678439366334132 1.0794121826110468 1.380082049832736
			vertex -1.6964999766616886 2.006984952385947 0.7917759126737446
			vertex -1.6951372500060724 0.7343626531640998 1.09641477389635
		endloop
	endfacet
	facet normal -0.9835808670988617 -0.0819469882965433 0.1607898286154254
		outer loop
			vertex 1.0808139623529496 0.6885219689901969 1.474140589676347
			vertex 1.0450590300261018 0.679822562731183 1.2509874350709311
			vertex 1.0921342126581328 0.01333947415183001 1.1992799795732871
		endloop
	endfacet
	facet normal 0.0011059449851310323 -0.9995292286928407 0.030661015547190442
		outer loop
			vertex -0.016111970452232206 0.6994734365584094 1.4748206278495308
			vertex -0.8515979135393668 0.6816692046755571 0.9245502479769644
			vertex 0.8657900077666534 0.6817633686041685 0.8656736280105136
		endloop
	endfacet
	facet normal 0.9842557013035982 0.0018923460304615702 0.17674029952974382
		outer loop
			vertex 1.7454373133422274 0.7378282443082504 1.1684084758885311
			vertex 1.7440014693314478 3.283556680090431 1.149147665222539
			vertex 1.6840419641859659 2.5378293449660916 1.4910428589615483
		endloop
	endfacet
	facet normal -0.9631225458341335 0.0505032203499715 0.26428088549923534
		outer loop
			vertex -1.6436235009344211 2.557440931856215 1.4910375583430504
			vertex -1.6106932526150992 3.2135925693310767 1.485657274667044
			vertex -1.695189476688332 3.282335199327732 1.1645900038629038
		endloop
	endfacet
	facet normal 0.9970135646217565 0.038410161027640916 0.06699710060927669
		outer loop
			vertex -0.8515979135393668 0.6816692046755571 0.9245502479769644
			vertex -0.8772253126733517 0.6783944357973342 1.3078003995356782
			vertex -0.8270716399480676 0.014286258155898013 0.9421817420569998
		endloop
	endfacet
	facet normal -0.6260978813101046 -0.694268821296458 0.3549538657271184
		outer loop
			vertex -1.6951372500060724 0.7343626531640998 1.09641477389635
			vertex -1.4332578546045958 0.693486310014655 1.4783882558997679
			vertex -1.6191598993618337 0.8541273219164455 1.464682727270488
		endloop
	endfacet
	facet normal 0.1462247434671955 -0.9884124197253195 0.04073343750154318
		outer loop
			vertex 1.5217008568512163 0.7174424553163318 1.476907824333387
			vertex 1.4760591017715323 0.6836152332167686 0.8199219630472683
			vertex 1.7454373133422274 0.7378282443082504 1.1684084758885311
		endloop
	endfacet
	facet normal 0.0030184378696610737 0.999371857519569 0.035309763957199425
		outer loop
			vertex 1.4847165707841945 3.3367705245950416 1.302281910027364
			vertex -0.9898180886973695 3.337291076511653 1.4990831177202826
			vertex 1.4448133588307635 3.329860232979644 1.5012749234692024
		endloop
	endfacet
	facet normal 0.7981827345193601 -0.24315770117720156 0.5511611875607856
		outer loop
			vertex -0.8270716399480676 0.014286258155898013 0.9421817420569998
			vertex -0.8772253126733517 0.6783944357973342 1.3078003995356782
			vertex -1.0778348588565339 0.007648012989882824 1.302404369904722
		endloop
	endfacet
	facet normal -0.7808378532349652 0.07475727220538936 0.6202447881343465
		outer loop
			vertex -1.184798923687588 0.31844135999028933 0.9639748452601355
			vertex -0.8772253126733517 0.6783944357973342 1.3078003995356782
			vertex -1.164910067679856 0.6791059658804176 0.9455428798366312
		endloop
	endfacet
	facet normal -0.8360948384459574 0.2461184338375679 0.490276593005796
		outer loop
			vertex -1.0778348588565339 0.007648012989882824 1.302404369904722
			vertex -0.8772253126733517 0.6783944357973342 1.3078003995356782
			vertex -1.184798923687588 0.31844135999028933 0.9639748452601355
		endloop
	endfacet
	facet normal -0.9556220179655048 -0.15810800496340244 0.24857276107013232
		outer loop
			vertex -1.6951372500060724 0.7343626531640998 1.09641477389635
			vertex -1.6191598993618337 0.8541273219164455 1.464682727270488
			vertex -1.678439366334132 1.0794121826110468 1.380082049832736
		endloop
	endfacet
	facet normal -0.9979857871032765 0.018963640768513826 0.06053717096674434
		outer loop
			vertex -1.678439366334132 1.0794121826110468 1.380082049832736
			vertex -1.6436235009344211 2.557440931856215 1.4910375583430504
			vertex -1.6964999766616886 2.006984952385947 0.7917759126737446
		endloop
	endfacet
	facet normal 0.11081200617921576 -0.06909130003386915 0.9914368822805452
		outer loop
			vertex 1.0921342126581328 0.01333947415183001 1.1992799795732871
			vertex 1.0450590300261018 0.679822562731183 1.2509874350709311
			vertex 0.7348987171848453 0 1.23827826681873
		endloop
	endfacet
	facet normal -0.022300937087838143 -0.9996272847442109 0.01574673934250609
		outer loop
			vertex -0.8772253126733517 0.6783944357973342 1.3078003995356782
			vertex -1.4332578546045958 0.693486310014655 1.4783882558997679
			vertex -1.164910067679856 0.6791059658804176 0.9455428798366312
		endloop
	endfacet
	facet normal -0.008638004402802798 -0.014751121308582001 0.999853883975092
		outer loop
			vertex 0.7348987171848453 0 1.23827826681873
			vertex 1.0450590300261018 0.679822562731183 1.2509874350709311
			vertex 0.7299918255108729 0.6829560077662168 1.2483117140332536
		endloop
	endfacet
	facet normal 0.06509127258461621 -0.9967812257009853 0.046800794046219826
		outer loop
			vertex 1.5217008568512163 0.7174424553163318 1.476907824333387
			vertex 1.0808139623529496 0.6885219689901969 1.474140589676347
			vertex 1.4760591017715323 0.6836152332167686 0.8199219630472683
		endloop
	endfacet
	facet normal 0.9820490003840548 0.00745152174132564 0.18847874062720582
		outer loop
			vertex 1.7440014693314478 3.283556680090431 1.149147665222539
			vertex 1.6817742348720894 3.119261827137539 1.4798716495764852
			vertex 1.6840419641859659 2.5378293449660916 1.4910428589615483
		endloop
	endfacet
	facet normal 0.9907741692086888 0.009563030762146402 0.13518540628142922
		outer loop
			vertex 1.7075062432711379 1.1168567650344015 1.4195928601167713
			vertex 1.7454373133422274 0.7378282443082504 1.1684084758885311
			vertex 1.6840419641859659 2.5378293449660916 1.4910428589615483
		endloop
	endfacet
	facet normal -0.35061133229908614 0.8926162653962143 0.2833864788827708
		outer loop
			vertex -1.6106932526150992 3.2135925693310767 1.485657274667044
			vertex -1.438818515210078 3.335593475487399 1.3140232477020493
			vertex -1.695189476688332 3.282335199327732 1.1645900038629038
		endloop
	endfacet
	facet normal 0.02579227760484385 -0.9996440801587481 -0.00681699490430489
		outer loop
			vertex -0.8515979135393668 0.6816692046755571 0.9245502479769644
			vertex -0.016111970452232206 0.6994734365584094 1.4748206278495308
			vertex -0.8772253126733517 0.6783944357973342 1.3078003995356782
		endloop
	endfacet
	facet normal -0.009950412214044064 -0.9991467826661128 0.040083612421117555
		outer loop
			vertex -0.016111970452232206 0.6994734365584094 1.4748206278495308
			vertex 0.7299918255108729 0.6829560077662168 1.2483117140332536
			vertex 1.0808139623529496 0.6885219689901969 1.474140589676347
		endloop
	endfacet
	facet normal 0.7845779447228536 -0.28604252007895975 0.5501064672964145
		outer loop
			vertex 1.5217008568512163 0.7174424553163318 1.476907824333387
			vertex 1.7454373133422274 0.7378282443082504 1.1684084758885311
			vertex 1.7075062432711379 1.1168567650344015 1.4195928601167713
		endloop
	endfacet
	facet normal 0.2472072473677974 0.9653929990329738 0.08309593411808673
		outer loop
			vertex 1.7440014693314478 3.283556680090431 1.149147665222539
			vertex 1.4847165707841945 3.3367705245950416 1.302281910027364
			vertex 1.4448133588307635 3.329860232979644 1.5012749234692024
		endloop
	endfacet
	facet normal 0.618462223919001 0.6511779016779005 0.43985431446278894
		outer loop
			vertex 1.7440014693314478 3.283556680090431 1.149147665222539
			vertex 1.4448133588307635 3.329860232979644 1.5012749234692024
			vertex 1.6817742348720894 3.119261827137539 1.4798716495764852
		endloop
	endfacet
	facet normal -0.010281370702449666 -0.9991226972440734 0.04059715837600522
		outer loop
			vertex 1.0808139623529496 0.6885219689901969 1.474140589676347
			vertex 0.7299918255108729 0.6829560077662168 1.2483117140332536
			vertex 1.0450590300261018 0.679822562731183 1.2509874350709311
		endloop
	endfacet
	facet normal -0.18461442260926 0.8788873517976801 0.43985740622923536
		outer loop
			vertex -1.6106932526150992 3.2135925693310767 1.485657274667044
			vertex -0.9898180886973695 3.337291076511653 1.4990831177202826
			vertex -1.438818515210078 3.335593475487399 1.3140232477020493
		endloop
	endfacet
	facet normal 0.004460612188243491 -0.9947186775720968 0.10254196910594766
		outer loop
			vertex -0.8772253126733517 0.6783944357973342 1.3078003995356782
			vertex -0.016111970452232206 0.6994734365584094 1.4748206278495308
			vertex -1.4332578546045958 0.693486310014655 1.4783882558997679
		endloop
	endfacet
	facet normal -0.00658583138662047 -0.7037658909655156 0.7104014340768614
		outer loop
			vertex 1.0808139623529496 0.6885219689901969 1.474140589676347
			vertex 0.4132847031726915 0.9576360850392569 1.734552649157144
			vertex -0.016111970452232206 0.6994734365584094 1.4748206278495308
		endloop
	endfacet
	facet normal -0.7699178829409002 0.03665523441457731 0.6370893558346543
		outer loop
			vertex -1.6191598993618337 0.8541273219164455 1.464682727270488
			vertex -1.4224162189696727 1.44955532721669 1.6681878142584705
			vertex -1.678439366334132 1.0794121826110468 1.380082049832736
		endloop
	endfacet
	facet normal 0.7147174885262461 -0.02334661329548979 0.6990234954866441
		outer loop
			vertex 1.4673335042211164 2.230899174472321 1.7023655787313494
			vertex 1.7075062432711379 1.1168567650344015 1.4195928601167713
			vertex 1.6840419641859659 2.5378293449660916 1.4910428589615483
		endloop
	endfacet
	facet normal 0.0008346525936208925 0.5245819289518171 0.8513595616261316
		outer loop
			vertex 1.4448133588307635 3.329860232979644 1.5012749234692024
			vertex -0.9898180886973695 3.337291076511653 1.4990831177202826
			vertex -1.260237404101288 2.9752453477017093 1.7224298228511472
		endloop
	endfacet
	facet normal 0.0047776812499658915 -0.7131762713073079 0.700968458495872
		outer loop
			vertex 0.4132847031726915 0.9576360850392569 1.734552649157144
			vertex -1.4332578546045958 0.693486310014655 1.4783882558997679
			vertex -0.016111970452232206 0.6994734365584094 1.4748206278495308
		endloop
	endfacet
	facet normal 0.6944037533436507 -0.2249492864591879 0.6835212109830627
		outer loop
			vertex 1.5217008568512163 0.7174424553163318 1.476907824333387
			vertex 1.7075062432711379 1.1168567650344015 1.4195928601167713
			vertex 1.3921905332886793 0.9363321977433771 1.6805175205864331
		endloop
	endfacet
	facet normal 0.6518492713202504 -0.0443432310367581 0.757050992562905
		outer loop
			vertex 1.7075062432711379 1.1168567650344015 1.4195928601167713
			vertex 1.402977291932094 1.373008082133645 1.696807412534572
			vertex 1.3921905332886793 0.9363321977433771 1.6805175205864331
		endloop
	endfacet
	facet normal -0.13500088664919055 0.5913110975750244 0.7950634858227063
		outer loop
			vertex -1.260237404101288 2.9752453477017093 1.7224298228511472
			vertex -0.9898180886973695 3.337291076511653 1.4990831177202826
			vertex -1.6106932526150992 3.2135925693310767 1.485657274667044
		endloop
	endfacet
	facet normal 0.03753721451562423 -0.6452582237934639 0.7630417958102377
		outer loop
			vertex 1.0808139623529496 0.6885219689901969 1.474140589676347
			vertex 1.5217008568512163 0.7174424553163318 1.476907824333387
			vertex 0.4132847031726915 0.9576360850392569 1.734552649157144
		endloop
	endfacet
	facet normal 0.02619162369979822 -0.6725027711140654 0.7396310037389396
		outer loop
			vertex 0.4132847031726915 0.9576360850392569 1.734552649157144
			vertex 1.5217008568512163 0.7174424553163318 1.476907824333387
			vertex 1.3921905332886793 0.9363321977433771 1.6805175205864331
		endloop
	endfacet
	facet normal -0.7245637771113159 -0.0346059728688438 0.6883384048126214
		outer loop
			vertex -1.678439366334132 1.0794121826110468 1.380082049832736
			vertex -1.4224162189696727 1.44955532721669 1.6681878142584705
			vertex -1.6436235009344211 2.557440931856215 1.4910375583430504
		endloop
	endfacet
	facet normal 0.6472288189716394 -0.05347965791391581 0.760417505112808
		outer loop
			vertex 1.402977291932094 1.373008082133645 1.696807412534572
			vertex 1.7075062432711379 1.1168567650344015 1.4195928601167713
			vertex 1.4673335042211164 2.230899174472321 1.7023655787313494
		endloop
	endfacet
	facet normal -0.42788915057219534 -0.42722077526848845 0.7964880940739775
		outer loop
			vertex -1.4332578546045958 0.693486310014655 1.4783882558997679
			vertex -1.2408245904048392 0.9850316301936825 1.7381464684987828
			vertex -1.6191598993618337 0.8541273219164455 1.464682727270488
		endloop
	endfacet
	facet normal 0.4127141112965187 0.38025845160887745 0.8276899010600189
		outer loop
			vertex 1.6817742348720894 3.119261827137539 1.4798716495764852
			vertex 1.4448133588307635 3.329860232979644 1.5012749234692024
			vertex 1.3394788444364818 2.9885926948310146 1.7105838759113987
		endloop
	endfacet
	facet normal -0.5611919657666985 -0.09556288810965424 0.8221504193120932
		outer loop
			vertex -1.2408245904048392 0.9850316301936825 1.7381464684987828
			vertex -1.4224162189696727 1.44955532721669 1.6681878142584705
			vertex -1.6191598993618337 0.8541273219164455 1.464682727270488
		endloop
	endfacet
	facet normal 0.5540455279750212 0.01815188201493196 0.8322884488626501
		outer loop
			vertex 1.6840419641859659 2.5378293449660916 1.4910428589615483
			vertex 1.6817742348720894 3.119261827137539 1.4798716495764852
			vertex 1.3394788444364818 2.9885926948310146 1.7105838759113987
		endloop
	endfacet
	facet normal -0.5434441419340398 0.034151351728128984 0.8387503500879846
		outer loop
			vertex -1.260237404101288 2.9752453477017093 1.7224298228511472
			vertex -1.6106932526150992 3.2135925693310767 1.485657274667044
			vertex -1.6436235009344211 2.557440931856215 1.4910375583430504
		endloop
	endfacet
	facet normal 0.6215206983779303 0.09644413634406818 0.7774384541895626
		outer loop
			vertex 1.4673335042211164 2.230899174472321 1.7023655787313494
			vertex 1.6840419641859659 2.5378293449660916 1.4910428589615483
			vertex 1.3394788444364818 2.9885926948310146 1.7105838759113987
		endloop
	endfacet
	facet normal -0.4927864333250927 -0.029447389271668557 0.8696518742553351
		outer loop
			vertex -1.2126626381758214 2.559227318240311 1.7353011276691692
			vertex -1.260237404101288 2.9752453477017093 1.7224298228511472
			vertex -1.6436235009344211 2.557440931856215 1.4910375583430504
		endloop
	endfacet
	facet normal -0.49281372653794625 0.040584395062627635 0.8691878610594967
		outer loop
			vertex -1.2126626381758214 2.559227318240311 1.7353011276691692
			vertex -1.6436235009344211 2.557440931856215 1.4910375583430504
			vertex -1.4224162189696727 1.44955532721669 1.6681878142584705
		endloop
	endfacet
	facet normal 0.0012021243398267665 0.5225552544058015 0.8526045748117702
		outer loop
			vertex -1.260237404101288 2.9752453477017093 1.7224298228511472
			vertex 1.3394788444364818 2.9885926948310146 1.7105838759113987
			vertex 1.4448133588307635 3.329860232979644 1.5012749234692024
		endloop
	endfacet
	facet normal -0.00933142819799269 -0.6617619755458369 0.749655929189823
		outer loop
			vertex -1.4332578546045958 0.693486310014655 1.4783882558997679
			vertex 0.4132847031726915 0.9576360850392569 1.734552649157144
			vertex -1.2408245904048392 0.9850316301936825 1.7381464684987828
		endloop
	endfacet
	facet normal 0.21997716259091843 0.026542503962762816 0.9751438578085982
		outer loop
			vertex 1.4673335042211164 2.230899174472321 1.7023655787313494
			vertex 1.3394788444364818 2.9885926948310146 1.7105838759113987
			vertex 1.1269135193802617 2.347556472555627 1.7759836864423493
		endloop
	endfacet
	facet normal 0.05423793882127139 -0.038561395921313746 0.9977831752124406
		outer loop
			vertex 1.402977291932094 1.373008082133645 1.696807412534572
			vertex 0.4132847031726915 0.9576360850392569 1.734552649157144
			vertex 1.3921905332886793 0.9363321977433771 1.6805175205864331
		endloop
	endfacet
	facet normal -0.2955743482882474 0.028265075075754976 0.9549015080964842
		outer loop
			vertex -1.2408245904048392 0.9850316301936825 1.7381464684987828
			vertex -1.095976537467001 2.0097547204268285 1.7526500520130988
			vertex -1.4224162189696727 1.44955532721669 1.6681878142584705
		endloop
	endfacet
	facet normal -0.22350751042039826 -0.01669358097164906 0.9745592424988944
		outer loop
			vertex -1.095976537467001 2.0097547204268285 1.7526500520130988
			vertex -1.2126626381758214 2.559227318240311 1.7353011276691692
			vertex -1.4224162189696727 1.44955532721669 1.6681878142584705
		endloop
	endfacet
	facet normal 0.1752179862822011 -0.10635720349724923 0.9787680024129596
		outer loop
			vertex 1.0731712499815649 2.0018033444657757 1.7480335251024353
			vertex 1.4673335042211164 2.230899174472321 1.7023655787313494
			vertex 1.1269135193802617 2.347556472555627 1.7759836864423493
		endloop
	endfacet
	facet normal 0.05910176099829387 -0.05022253416818178 0.9969878027882922
		outer loop
			vertex 1.402977291932094 1.373008082133645 1.696807412534572
			vertex 1.0731712499815649 2.0018033444657757 1.7480335251024353
			vertex 0.4132847031726915 0.9576360850392569 1.734552649157144
		endloop
	endfacet
	facet normal 0.12409763404739793 -0.015737384097201157 0.9921452070970334
		outer loop
			vertex 1.402977291932094 1.373008082133645 1.696807412534572
			vertex 1.4673335042211164 2.230899174472321 1.7023655787313494
			vertex 1.0731712499815649 2.0018033444657757 1.7480335251024353
		endloop
	endfacet
	facet normal -0.0009465330595643956 0.1018057651436899 0.9948038451165512
		outer loop
			vertex 0.8006961520534176 2.582675929320805 1.751611754389668
			vertex 1.1269135193802617 2.347556472555627 1.7759836864423493
			vertex 1.3394788444364818 2.9885926948310146 1.7105838759113987
		endloop
	endfacet
	facet normal 0.004046887948651471 0.09524277240573413 0.9954458483525864
		outer loop
			vertex 0.8006961520534176 2.582675929320805 1.751611754389668
			vertex 1.3394788444364818 2.9885926948310146 1.7105838759113987
			vertex -1.260237404101288 2.9752453477017093 1.7224298228511472
		endloop
	endfacet
	facet normal 0.0019383460592526391 -0.014134318335563662 0.9998982267509748
		outer loop
			vertex 0.4132847031726915 0.9576360850392569 1.734552649157144
			vertex 1.0731712499815649 2.0018033444657757 1.7480335251024353
			vertex -1.2408245904048392 0.9850316301936825 1.7381464684987828
		endloop
	endfacet
	facet normal -0.004048997115579081 -0.013579900762359518 0.9998995909178295
		outer loop
			vertex -1.2408245904048392 0.9850316301936825 1.7381464684987828
			vertex -0.7535059148198714 2.0031608289655978 1.7539473004402102
			vertex -1.095976537467001 2.0097547204268285 1.7526500520130988
		endloop
	endfacet
	facet normal 0.008870975534176814 -0.019761849976535874 0.9997653600113264
		outer loop
			vertex -1.2408245904048392 0.9850316301936825 1.7381464684987828
			vertex 0.8006961520534176 2.582675929320805 1.751611754389668
			vertex -0.7535059148198714 2.0031608289655978 1.7539473004402102
		endloop
	endfacet
	facet normal -0.0012983293485783166 -0.006768965886900595 0.9999762474387703
		outer loop
			vertex 1.0731712499815649 2.0018033444657757 1.7480335251024353
			vertex 0.8006961520534176 2.582675929320805 1.751611754389668
			vertex -1.2408245904048392 0.9850316301936825 1.7381464684987828
		endloop
	endfacet
	facet normal 0.013166314923063248 -0.03128290088392605 0.9994238481563431
		outer loop
			vertex 0.8006961520534176 2.582675929320805 1.751611754389668
			vertex -0.7555591249851232 2.5632578929561296 1.7715059110158982
			vertex -0.7535059148198714 2.0031608289655978 1.7539473004402102
		endloop
	endfacet
	facet normal -0.079129662621246 0.021785846712586873 0.9966262455787844
		outer loop
			vertex -0.7555591249851232 2.5632578929561296 1.7715059110158982
			vertex -1.260237404101288 2.9752453477017093 1.7224298228511472
			vertex -1.2126626381758214 2.559227318240311 1.7353011276691692
		endloop
	endfacet
	facet normal 0.011029527676979815 0.13158822273914847 0.991243102954858
		outer loop
			vertex -1.260237404101288 2.9752453477017093 1.7224298228511472
			vertex -0.7555591249851232 2.5632578929561296 1.7715059110158982
			vertex 0.8006961520534176 2.582675929320805 1.751611754389668
		endloop
	endfacet
	facet normal -0.004389615098105451 -0.0313496085814514 0.9994988410804089
		outer loop
			vertex -0.7535059148198714 2.0031608289655978 1.7539473004402102
			vertex -0.7555591249851232 2.5632578929561296 1.7715059110158982
			vertex -1.095976537467001 2.0097547204268285 1.7526500520130988
		endloop
	endfacet
	facet normal -0.11850632548572225 -0.06169368914902601 0.9910348831090939
		outer loop
			vertex 1.0731712499815649 2.0018033444657757 1.7480335251024353
			vertex 1.1269135193802617 2.347556472555627 1.7759836864423493
			vertex 0.8006961520534176 2.582675929320805 1.751611754389668
		endloop
	endfacet
	facet normal -0.07907761773877697 0.014678551251153986 0.9967603877090659
		outer loop
			vertex -0.7555591249851232 2.5632578929561296 1.7715059110158982
			vertex -1.2126626381758214 2.559227318240311 1.7353011276691692
			vertex -1.095976537467001 2.0097547204268285 1.7526500520130988
		endloop
	endfacet
endsolid exported
